<?xml version="1.0" encoding="UTF-8" standalone="no"?>
<!-- Created with Inkscape (http://www.inkscape.org/) -->

<svg
   width="150mm"
   height="150mm"
   viewBox="0 0 150 150"
   version="1.1"
   id="svg1"
   xml:space="preserve"
   inkscape:version="1.4.2 (ebf0e940, 2025-05-08)"
   sodipodi:docname="AppIcon.svg"
   xmlns:inkscape="http://www.inkscape.org/namespaces/inkscape"
   xmlns:sodipodi="http://sodipodi.sourceforge.net/DTD/sodipodi-0.dtd"
   xmlns="http://www.w3.org/2000/svg"
   xmlns:svg="http://www.w3.org/2000/svg"><sodipodi:namedview
     id="namedview1"
     pagecolor="#ffffff"
     bordercolor="#000000"
     borderopacity="0.25"
     inkscape:showpageshadow="2"
     inkscape:pageopacity="0.0"
     inkscape:pagecheckerboard="0"
     inkscape:deskcolor="#d1d1d1"
     inkscape:document-units="mm"
     inkscape:zoom="0.50044745"
     inkscape:cx="-36.966918"
     inkscape:cy="187.83191"
     inkscape:window-width="1880"
     inkscape:window-height="1027"
     inkscape:window-x="44"
     inkscape:window-y="25"
     inkscape:window-maximized="0"
     inkscape:current-layer="layer1" /><defs
     id="defs1" /><g
     inkscape:label="Ebene 1"
     inkscape:groupmode="layer"
     id="layer1"
     transform="translate(-48.671656,-24.610504)"><path
       style="fill:none;stroke:#000000;stroke-width:5.40384;stroke-linecap:round;stroke-miterlimit:3.9;stroke-dasharray:none;stroke-opacity:1;paint-order:normal"
       d="m 92.372119,118.04254 c -1.719562,-7.09188 -2.353921,-18.759674 1.708223,-22.608903 4.874544,-4.058384 10.891838,-11.171311 10.291548,-17.774464 -0.0887,-9.050194 -34.862816,-31.661738 9.53881,-36.807185 45.64987,-6.346345 34.73718,24.494622 24.60012,47.888064"
       id="path1"
       sodipodi:nodetypes="ccccc" /><path
       style="fill:none;stroke:#000000;stroke-width:5.40384;stroke-linecap:round;stroke-miterlimit:3.9;stroke-dasharray:none;stroke-opacity:1;paint-order:normal"
       d="m 133.30241,89.20729 c 21.91422,-0.773835 36.80394,3.896215 36.55339,20.29975 -3.52125,20.00191 -42.21105,22.35281 -48.84664,3.2204 -1.39163,-8.12322 10.63942,-13.131767 21.97428,-12.24149"
       id="path2"
       sodipodi:nodetypes="cccc" /><path
       style="fill:none;stroke:#000000;stroke-width:5.40384;stroke-linecap:round;stroke-miterlimit:3.9;stroke-dasharray:none;stroke-opacity:1;paint-order:normal"
       d="m 167.48074,121.65707 c 3.98315,15.20348 -3.96972,23.41295 -21.83928,24.91806 -18.792,-0.21415 -26.09174,-14.1852 -18.60365,-21.84063"
       id="path3"
       sodipodi:nodetypes="ccc" /><path
       style="fill:none;stroke:#000000;stroke-width:5.40384;stroke-linecap:round;stroke-miterlimit:3.9;stroke-dasharray:none;stroke-opacity:1;paint-order:normal"
       d="m 163.62405,143.42513 c 0.48604,11.12245 -5.42603,18.61075 -18.87603,19.63347 -14.98821,0.29788 -22.3628,-7.41545 -18.72809,-21.59894"
       id="path4"
       sodipodi:nodetypes="ccc" /><path
       style="fill:none;stroke:#000000;stroke-width:5.40384;stroke-linecap:round;stroke-miterlimit:3.9;stroke-dasharray:none;stroke-opacity:1;paint-order:normal"
       d="M 123.85972,155.86947 C 113.6032,157.46513 102.00698,155.6747 98.864511,144.52981"
       id="path5"
       sodipodi:nodetypes="cc" /><path
       style="fill:none;stroke:#000000;stroke-width:5.40384;stroke-linecap:round;stroke-miterlimit:3.9;stroke-dasharray:none;stroke-opacity:1;paint-order:normal"
       d="M 100.34614,152.89292 C 84.449881,154.44914 80.510433,144.63771 75.396855,130.98296 71.188227,115.2496 73.83109,101.63048 89.986512,99.989873"
       id="path6"
       sodipodi:nodetypes="ccc" /></g></svg>
